<?xml version="1.0" encoding="utf-8"?>
<svg viewBox="78.0684 56.0002 2523.6296 689.0888" width="2523.63px" height="689.089px" xmlns="http://www.w3.org/2000/svg" xmlns:bx="https://boxy-svg.com">
  <defs>
    <filter id="black-and-white-filter-0" color-interpolation-filters="sRGB" x="-50%" y="-50%" width="200%" height="200%" bx:preset="black-and-white 1 1">
      <feColorMatrix type="saturate" values="0"/>
      <feComponentTransfer>
        <feFuncR type="discrete" tableValues="1 1 1 1 1 1 1 1 1 1 1 1 1 1 1 1 1 1 1 1 1 1 1 1 1 1 1 1 1 1 1 1 1 1 1 1 1 1 1 1 1 1 1 1 1 1 1 1 1 1 1 1 1 1 1 1 1 1 1 1 1 1 1 1 1 1 1 1 1 1 1 1 1 1 1 1 1 1 1 1 1 1 1 1 1 1 1 1 1 1 1 1 1 1 1 1 1 1 1 1 1 1 1 1 1 1 1 1 1 1 1 1 1 1 1 1 1 1 1 1 1 1 1 1 1 1 1 1 1 1 1 1 1 1 1 1 1 1 1 1 1 1 1 1 1 1 1 1 1 1 1 1 1 1 1 1 1 1 1 1 1 1 1 1 1 1 1 1 1 1 1 1 1 1 1 1 1 1 1 1 1 1 1 1 1 1 1 1 1 1 1 1 1 1 1 1 1 1 1 1 1 1 1 1 1 1 1 1 1 1 1 1 1 1 1 1 1 1 1 1 1 1 1 1 1 1 1 1 1 1 1 1 1 1 1 1 1 1 1 1 1 1 1 1 1 1 1 1 1 1 1 1 1 1 1 "/>
        <feFuncG type="discrete" tableValues="1 1 1 1 1 1 1 1 1 1 1 1 1 1 1 1 1 1 1 1 1 1 1 1 1 1 1 1 1 1 1 1 1 1 1 1 1 1 1 1 1 1 1 1 1 1 1 1 1 1 1 1 1 1 1 1 1 1 1 1 1 1 1 1 1 1 1 1 1 1 1 1 1 1 1 1 1 1 1 1 1 1 1 1 1 1 1 1 1 1 1 1 1 1 1 1 1 1 1 1 1 1 1 1 1 1 1 1 1 1 1 1 1 1 1 1 1 1 1 1 1 1 1 1 1 1 1 1 1 1 1 1 1 1 1 1 1 1 1 1 1 1 1 1 1 1 1 1 1 1 1 1 1 1 1 1 1 1 1 1 1 1 1 1 1 1 1 1 1 1 1 1 1 1 1 1 1 1 1 1 1 1 1 1 1 1 1 1 1 1 1 1 1 1 1 1 1 1 1 1 1 1 1 1 1 1 1 1 1 1 1 1 1 1 1 1 1 1 1 1 1 1 1 1 1 1 1 1 1 1 1 1 1 1 1 1 1 1 1 1 1 1 1 1 1 1 1 1 1 1 1 1 1 1 1 "/>
        <feFuncB type="discrete" tableValues="1 1 1 1 1 1 1 1 1 1 1 1 1 1 1 1 1 1 1 1 1 1 1 1 1 1 1 1 1 1 1 1 1 1 1 1 1 1 1 1 1 1 1 1 1 1 1 1 1 1 1 1 1 1 1 1 1 1 1 1 1 1 1 1 1 1 1 1 1 1 1 1 1 1 1 1 1 1 1 1 1 1 1 1 1 1 1 1 1 1 1 1 1 1 1 1 1 1 1 1 1 1 1 1 1 1 1 1 1 1 1 1 1 1 1 1 1 1 1 1 1 1 1 1 1 1 1 1 1 1 1 1 1 1 1 1 1 1 1 1 1 1 1 1 1 1 1 1 1 1 1 1 1 1 1 1 1 1 1 1 1 1 1 1 1 1 1 1 1 1 1 1 1 1 1 1 1 1 1 1 1 1 1 1 1 1 1 1 1 1 1 1 1 1 1 1 1 1 1 1 1 1 1 1 1 1 1 1 1 1 1 1 1 1 1 1 1 1 1 1 1 1 1 1 1 1 1 1 1 1 1 1 1 1 1 1 1 1 1 1 1 1 1 1 1 1 1 1 1 1 1 1 1 1 1 "/>
      </feComponentTransfer>
    </filter>
  </defs>
  <path d="M237.9 745.089C183.639 745.089 144.419 734.124 120.24 712.195C96.0617 689.984 82.8478 653.295 80.5987 602.126C80.3175 589.474 80.177 576.963 80.177 564.593C80.177 552.223 80.3175 539.852 80.5987 527.482C81.161 514.83 82.0044 502.179 83.129 489.527H174.642C173.517 512.019 172.814 534.089 172.533 555.737C172.252 577.104 172.955 597.909 174.642 618.151C175.767 634.458 181.389 646.406 191.511 653.997C201.632 661.307 217.095 664.962 237.9 664.962C257.299 664.962 271.918 661.307 281.758 653.997C291.599 646.406 297.222 634.458 298.627 618.151C299.752 607.187 300.455 595.8 300.736 583.992C301.017 572.184 300.876 560.376 300.314 548.568C300.033 536.76 299.471 525.514 298.627 514.83C297.784 497.399 293.004 483.482 284.289 473.08C275.573 462.678 263.062 455.508 246.756 451.572L184.341 436.812C158.195 430.627 137.531 421.349 122.349 408.979C107.167 396.327 96.2023 380.161 89.4548 360.481C82.9884 340.52 79.3335 316.482 78.4901 288.367C78.2089 273.185 78.0684 258.144 78.0684 243.243C78.3495 228.343 78.6306 213.301 78.9118 198.119C80.0364 164.101 86.081 136.689 97.0457 115.884C108.292 95.0795 125.301 79.8977 148.074 70.3387C171.128 60.7797 201.07 56.0002 237.9 56.0002C291.317 56.0002 329.975 66.9649 353.872 88.8943C377.77 110.824 390.702 147.373 392.67 198.541C393.233 213.442 393.373 230.451 393.092 249.569C392.811 268.687 392.249 287.664 391.405 306.501H298.206C299.049 284.009 299.611 262.642 299.892 242.4C300.174 222.157 299.892 202.196 299.049 182.516C298.487 166.209 293.145 154.401 283.024 147.092C273.184 139.782 258.002 136.127 237.478 136.127C217.517 136.127 202.475 139.782 192.354 147.092C182.514 154.401 176.891 166.209 175.485 182.516C174.08 200.509 173.377 218.221 173.377 235.652C173.377 252.802 174.08 270.374 175.485 288.367C176.61 306.079 180.265 320.137 186.45 330.539C192.635 340.942 203.178 347.83 218.079 351.203L274.589 363.433C303.547 369.9 326.742 379.599 344.173 392.532C361.604 405.183 374.255 421.63 382.128 441.873C390.281 462.115 394.92 486.434 396.044 514.83C396.325 523.827 396.466 533.386 396.466 543.507C396.466 553.628 396.325 563.75 396.044 573.871C395.763 583.711 395.482 593.129 395.201 602.126C393.233 653.295 380.019 689.984 355.559 712.195C331.381 734.124 292.161 745.089 237.9 745.089Z" fill="#002244" style="filter: url('#black-and-white-filter-0');"/>
  <path d="M475.413 737.919V398.858H592.651L643.257 217.097L697.237 63.1695H802.245L573.673 627.851V737.919H475.413ZM711.575 737.919L654.643 541.82L712.419 406.448L810.258 737.919H711.575ZM475.413 357.107V63.1695H577.469L577.047 216.253L565.239 357.107H475.413Z" fill="#002244" style="filter: url('#black-and-white-filter-0');"/>
  <path d="M833.88 737.919L916.959 63.1695H1095.35L1105.47 148.778H989.495L980.217 338.13L963.348 486.153L954.07 572.184L932.984 737.919H833.88ZM1077.63 737.919L1032.93 337.708L1024.92 187.576H1108.42L1176.32 737.919H1077.63Z" fill="#002244" style="filter: url('#black-and-white-filter-0');"/>
  <path d="M1242.25 737.919V63.1695H1338.82V737.919H1242.25ZM1389.01 439.343V353.734H1502.45V439.343H1389.01ZM1333.89 148.778V63.1695H1510.88V148.778H1333.89Z" fill="#002244" style="filter: url('#black-and-white-filter-0');"/>
  <path d="M1573.36 737.919V63.1695H1669.94V737.919H1573.36ZM1720.12 439.343V353.734H1833.56V439.343H1720.12ZM1665.01 148.778V63.1695H1842V148.778H1665.01Z" fill="#002244" style="filter: url('#black-and-white-filter-0');"/>
  <path d="M 1976.572 550.463 L 1976.572 483.231 L 1983.628 483.231 L 1984.278 490.845 C 1985.269 489.359 1986.538 487.966 1988.087 486.666 C 1989.634 485.304 1991.491 484.221 1993.657 483.416 C 1995.825 482.55 1998.301 482.116 2001.087 482.116 C 2005.668 482.116 2009.631 483.2 2012.973 485.367 C 2016.378 487.533 2019.01 490.474 2020.866 494.189 C 2022.786 497.842 2023.745 502.019 2023.745 506.724 C 2023.745 511.43 2022.786 515.64 2020.866 519.354 C 2019.01 523.007 2016.378 525.886 2012.973 527.991 C 2009.568 530.095 2005.576 531.147 2000.995 531.147 C 1997.218 531.147 1993.874 530.375 1990.965 528.826 C 1988.117 527.279 1985.919 525.112 1984.371 522.326 L 1984.371 550.463 L 1976.572 550.463 Z M 2000.158 524.369 C 2003.192 524.369 2005.885 523.626 2008.238 522.14 C 2010.59 520.655 2012.416 518.612 2013.716 516.011 C 2015.078 513.349 2015.759 510.222 2015.759 506.632 C 2015.759 503.103 2015.078 500.007 2013.716 497.345 C 2012.416 494.683 2010.59 492.61 2008.238 491.124 C 2005.885 489.639 2003.192 488.895 2000.158 488.895 C 1997.062 488.895 1994.339 489.639 1991.986 491.124 C 1989.634 492.61 1987.807 494.683 1986.507 497.345 C 1985.208 500.007 1984.558 503.103 1984.558 506.632 C 1984.558 510.222 1985.208 513.349 1986.507 516.011 C 1987.807 518.612 1989.634 520.655 1991.986 522.14 C 1994.339 523.626 1997.062 524.369 2000.158 524.369 Z" fill="#002244" style="filter: url('#black-and-white-filter-0');"/>
  <path d="M 2055.595 531.147 C 2051.261 531.147 2047.361 530.158 2043.895 528.176 C 2040.427 526.133 2037.704 523.285 2035.722 519.632 C 2033.742 515.918 2032.751 511.615 2032.751 506.724 C 2032.751 501.71 2033.742 497.377 2035.722 493.724 C 2037.765 490.01 2040.52 487.162 2043.988 485.18 C 2047.517 483.137 2051.448 482.116 2055.781 482.116 C 2060.238 482.116 2064.169 483.137 2067.575 485.18 C 2071.041 487.162 2073.765 490.01 2075.746 493.724 C 2077.79 497.377 2078.811 501.68 2078.811 506.632 C 2078.811 511.585 2077.79 515.918 2075.746 519.632 C 2073.703 523.285 2070.949 526.133 2067.481 528.176 C 2064.015 530.158 2060.052 531.147 2055.595 531.147 Z M 2055.688 524.462 C 2058.35 524.462 2060.827 523.812 2063.117 522.511 C 2065.408 521.15 2067.264 519.138 2068.689 516.476 C 2070.113 513.814 2070.825 510.533 2070.825 506.632 C 2070.825 502.669 2070.113 499.389 2068.689 496.788 C 2067.327 494.126 2065.501 492.145 2063.209 490.845 C 2060.981 489.483 2058.505 488.802 2055.781 488.802 C 2053.18 488.802 2050.705 489.483 2048.352 490.845 C 2046.061 492.145 2044.204 494.126 2042.78 496.788 C 2041.418 499.389 2040.737 502.669 2040.737 506.632 C 2040.737 510.533 2041.418 513.814 2042.78 516.476 C 2044.204 519.138 2046.031 521.15 2048.259 522.511 C 2050.549 523.812 2053.026 524.462 2055.688 524.462 Z" fill="#002244" style="filter: url('#black-and-white-filter-0');"/>
  <path d="M 2097.497 530.034 L 2083.753 483.231 L 2091.553 483.231 L 2102.232 522.698 L 2100.839 522.698 L 2112.447 483.231 L 2121.27 483.231 L 2133.063 522.604 L 2131.577 522.698 L 2142.164 483.231 L 2150.057 483.231 L 2136.406 530.034 L 2128.42 530.034 L 2116.162 488.802 L 2117.741 488.802 L 2105.483 530.034 L 2097.497 530.034 Z" fill="#002244" style="filter: url('#black-and-white-filter-0');"/>
  <path d="M 2177.65 531.147 C 2173.254 531.147 2169.354 530.126 2165.95 528.083 C 2162.606 526.04 2159.975 523.193 2158.056 519.54 C 2156.137 515.825 2155.178 511.522 2155.178 506.632 C 2155.178 501.68 2156.106 497.377 2157.964 493.724 C 2159.883 490.071 2162.545 487.223 2165.95 485.18 C 2169.416 483.137 2173.378 482.116 2177.835 482.116 C 2182.418 482.116 2186.286 483.137 2189.444 485.18 C 2192.662 487.223 2195.109 489.917 2196.78 493.26 C 2198.514 496.541 2199.38 500.163 2199.38 504.125 C 2199.38 504.744 2199.38 505.394 2199.38 506.074 C 2199.38 506.756 2199.35 507.53 2199.287 508.397 L 2161.028 508.397 L 2161.028 502.36 L 2191.766 502.36 C 2191.58 498.088 2190.156 494.746 2187.494 492.331 C 2184.893 489.917 2181.612 488.709 2177.65 488.709 C 2174.988 488.709 2172.511 489.328 2170.221 490.567 C 2167.993 491.743 2166.198 493.507 2164.835 495.86 C 2163.473 498.151 2162.793 501.03 2162.793 504.496 L 2162.793 507.097 C 2162.793 510.935 2163.473 514.154 2164.835 516.754 C 2166.259 519.354 2168.085 521.305 2170.314 522.604 C 2172.605 523.904 2175.051 524.554 2177.65 524.554 C 2180.931 524.554 2183.624 523.843 2185.729 522.419 C 2187.896 520.933 2189.444 518.952 2190.373 516.476 L 2198.081 516.476 C 2197.338 519.262 2196.037 521.768 2194.18 523.997 C 2192.323 526.225 2190 527.991 2187.216 529.291 C 2184.491 530.529 2181.303 531.147 2177.65 531.147 Z" fill="#002244" style="filter: url('#black-and-white-filter-0');"/>
  <path d="M 2209.907 530.034 L 2209.907 483.231 L 2216.964 483.231 L 2217.521 492.145 C 2218.574 490.041 2219.905 488.246 2221.515 486.76 C 2223.186 485.273 2225.168 484.128 2227.458 483.324 C 2229.811 482.518 2232.473 482.116 2235.444 482.116 L 2235.444 490.288 L 2232.565 490.288 C 2230.585 490.288 2228.696 490.567 2226.901 491.124 C 2225.105 491.619 2223.496 492.455 2222.073 493.631 C 2220.71 494.807 2219.626 496.417 2218.822 498.46 C 2218.079 500.441 2217.707 502.917 2217.707 505.889 L 2217.707 530.034 L 2209.907 530.034 Z" fill="#002244" style="filter: url('#black-and-white-filter-0');"/>
  <path d="M 2263.077 531.147 C 2258.682 531.147 2254.781 530.126 2251.376 528.083 C 2248.033 526.04 2245.402 523.193 2243.482 519.54 C 2241.563 515.825 2240.604 511.522 2240.604 506.632 C 2240.604 501.68 2241.533 497.377 2243.39 493.724 C 2245.309 490.071 2247.971 487.223 2251.376 485.18 C 2254.843 483.137 2258.806 482.116 2263.263 482.116 C 2267.844 482.116 2271.714 483.137 2274.866 485.18 C 2278.091 487.223 2280.533 489.917 2282.204 493.26 C 2283.94 496.541 2284.802 500.163 2284.802 504.125 C 2284.802 504.744 2284.802 505.394 2284.802 506.074 C 2284.802 506.756 2284.776 507.53 2284.71 508.397 L 2246.454 508.397 L 2246.454 502.36 L 2277.19 502.36 C 2277.008 498.088 2275.585 494.746 2272.92 492.331 C 2270.321 489.917 2267.038 488.709 2263.077 488.709 C 2260.415 488.709 2257.939 489.328 2255.647 490.567 C 2253.419 491.743 2251.624 493.507 2250.262 495.86 C 2248.9 498.151 2248.219 501.03 2248.219 504.496 L 2248.219 507.097 C 2248.219 510.935 2248.9 514.154 2250.262 516.754 C 2251.685 519.354 2253.512 521.305 2255.74 522.604 C 2258.031 523.904 2260.477 524.554 2263.077 524.554 C 2266.358 524.554 2269.052 523.843 2271.156 522.419 C 2273.322 520.933 2274.866 518.952 2275.793 516.476 L 2283.509 516.476 C 2282.765 519.262 2281.46 521.768 2279.606 523.997 C 2277.752 526.225 2275.428 527.991 2272.642 529.291 C 2269.917 530.529 2266.729 531.147 2263.077 531.147 Z" fill="#002244" style="filter: url('#black-and-white-filter-0');"/>
  <path d="M 2315.952 531.147 C 2311.435 531.147 2307.466 530.095 2304.059 527.991 C 2300.664 525.823 2298.027 522.883 2296.173 519.169 C 2294.306 515.453 2293.379 511.244 2293.379 506.539 C 2293.379 501.834 2294.306 497.655 2296.173 494.003 C 2298.027 490.288 2300.664 487.379 2304.059 485.273 C 2307.531 483.168 2311.526 482.116 2316.044 482.116 C 2319.882 482.116 2323.224 482.89 2326.07 484.437 C 2328.982 485.986 2331.214 488.152 2332.755 490.938 L 2332.755 463.173 L 2340.562 463.173 L 2340.562 530.034 L 2333.499 530.034 L 2332.846 522.326 C 2331.854 523.873 2330.587 525.329 2329.047 526.69 C 2327.493 527.991 2325.639 529.074 2323.472 529.941 C 2321.305 530.745 2318.798 531.147 2315.952 531.147 Z M 2316.879 524.369 C 2319.973 524.369 2322.702 523.626 2325.052 522.14 C 2327.402 520.655 2329.23 518.612 2330.522 516.011 C 2331.828 513.349 2332.48 510.222 2332.48 506.632 C 2332.48 503.103 2331.828 500.007 2330.522 497.345 C 2329.23 494.683 2327.402 492.61 2325.052 491.124 C 2322.702 489.639 2319.973 488.895 2316.879 488.895 C 2313.85 488.895 2311.148 489.639 2308.798 491.124 C 2306.448 492.61 2304.62 494.683 2303.314 497.345 C 2302.022 500.007 2301.369 503.103 2301.369 506.632 C 2301.369 510.222 2302.022 513.349 2303.314 516.011 C 2304.62 518.612 2306.448 520.655 2308.798 522.14 C 2311.148 523.626 2313.85 524.369 2316.879 524.369 Z" fill="#002244" style="filter: url('#black-and-white-filter-0');"/>
  <path d="M 2402.732 531.147 C 2400.069 531.147 2397.667 530.777 2395.499 530.034 C 2393.384 529.228 2391.53 528.176 2389.925 526.876 C 2388.306 525.577 2386.987 524.06 2385.93 522.326 L 2385.277 530.034 L 2378.227 530.034 L 2378.227 463.173 L 2386.021 463.173 L 2386.021 490.938 C 2387.509 488.524 2389.637 486.449 2392.431 484.717 C 2395.212 482.983 2398.646 482.116 2402.732 482.116 C 2407.262 482.116 2411.218 483.2 2414.626 485.367 C 2418.033 487.472 2420.657 490.382 2422.511 494.096 C 2424.43 497.748 2425.396 501.927 2425.396 506.632 C 2425.396 511.337 2424.43 515.547 2422.511 519.262 C 2420.657 522.976 2418.033 525.886 2414.626 527.991 C 2411.218 530.095 2407.262 531.147 2402.732 531.147 Z M 2401.805 524.369 C 2404.847 524.369 2407.537 523.626 2409.887 522.14 C 2412.237 520.655 2414.064 518.612 2415.37 516.011 C 2416.728 513.349 2417.407 510.222 2417.407 506.632 C 2417.407 503.103 2416.728 500.007 2415.37 497.345 C 2414.064 494.683 2412.237 492.61 2409.887 491.124 C 2407.537 489.639 2404.847 488.895 2401.805 488.895 C 2398.711 488.895 2395.982 489.639 2393.632 491.124 C 2391.282 492.61 2389.455 494.683 2388.162 497.345 C 2386.857 500.007 2386.204 503.103 2386.204 506.632 C 2386.204 510.222 2386.857 513.349 2388.162 516.011 C 2389.455 518.612 2391.282 520.655 2393.632 522.14 C 2395.982 523.626 2398.711 524.369 2401.805 524.369 Z" fill="#002244" style="filter: url('#black-and-white-filter-0');"/>
  <path d="M 2437.734 550.463 L 2449.157 524.832 L 2446.468 524.832 L 2428.086 483.231 L 2436.533 483.231 L 2451.769 518.982 L 2467.735 483.231 L 2475.817 483.231 L 2445.907 550.463 L 2437.734 550.463 Z" fill="#002244" style="filter: url('#black-and-white-filter-0');"/>
  <path d="M 1906.649 596.666 L 1841.579 732.672 L 1859.855 732.672 L 1906.733 632.189 L 1953.602 732.672 L 1971.877 732.672 L 1906.807 596.666 L 1906.649 596.666 Z" fill="#002244" style="filter: url('#black-and-white-filter-0');"/>
  <path d="M 2346.998 596.666 L 2281.93 732.672 L 2300.207 732.672 L 2347.09 632.189 L 2393.959 732.672 L 2412.237 732.672 L 2347.168 596.666 L 2346.998 596.666 Z" fill="#002244" style="filter: url('#black-and-white-filter-0');"/>
  <path d="M 2056.696 639.285 C 2056.696 626.812 2050.183 614.512 2038.776 608.104 C 2027.92 602.212 2014.887 602.038 2002.761 602.038 L 1982.133 602.038 L 1982.133 732.659 L 1999.146 732.659 L 1999.146 677.395 L 2006.204 677.395 L 2046.378 732.659 L 2067.006 732.659 L 2023.934 675.836 C 2043.655 673.583 2056.688 657.992 2056.688 639.285 M 2004.569 663.885 L 1999.138 663.885 L 1999.138 616.6 L 2003.662 616.6 C 2020.493 616.6 2040.758 619.542 2040.758 639.989 C 2040.758 660.435 2021.937 663.892 2004.569 663.892" fill="#002244" style="filter: url('#black-and-white-filter-0');"/>
  <path d="M 2207.447 717.763 L 2141.696 717.763 L 2141.696 732.672 L 2207.447 732.672 L 2207.447 717.763 Z" fill="#002244" style="filter: url('#black-and-white-filter-0');"/>
  <path d="M 2207.449 616.939 L 2207.449 602.045 L 2064.11 602.045 L 2064.11 616.939 L 2096.501 616.939 L 2096.501 732.672 L 2113.513 732.672 L 2113.513 616.939 L 2207.449 616.939 Z" fill="#002244" style="filter: url('#black-and-white-filter-0');"/>
  <path d="M 2292.674 653.672 L 2245.263 653.672 L 2245.263 616.939 L 2294.306 616.939 L 2294.306 602.045 L 2228.25 602.045 L 2228.25 732.659 L 2245.263 732.659 L 2245.263 668.566 L 2292.674 668.566 L 2292.674 653.672 Z" fill="#002244" style="filter: url('#black-and-white-filter-0');"/>
  <path d="M 2405.369 668.045 C 2405.369 705.817 2437.577 735.44 2476.483 735.44 C 2488.428 735.44 2501.823 732.15 2512.32 726.249 L 2512.32 707.018 C 2502.189 715.687 2489.342 720.544 2475.947 720.544 C 2445.541 720.544 2422.381 696.109 2422.381 667.53 C 2422.381 638.952 2445.724 614.171 2476.3 614.171 C 2489.147 614.171 2502.541 618.679 2512.32 626.993 L 2512.32 608.104 C 2502.006 602.038 2489.878 599.268 2477.945 599.268 C 2437.76 599.268 2405.369 629.414 2405.369 668.045" fill="#002244" style="filter: url('#black-and-white-filter-0');"/>
  <path d="M 2519.892 602.045 L 2519.892 616.939 L 2552.296 616.939 L 2552.296 732.659 L 2569.307 732.659 L 2569.307 616.939 L 2601.698 616.939 L 2601.698 602.045 L 2519.892 602.045 Z" fill="#002244" style="filter: url('#black-and-white-filter-0');"/>
  <path d="M 2188.801 654.337 L 2141.696 654.337 L 2141.696 669.239 L 2188.801 669.239 L 2188.801 654.337 Z" fill="#002244" style="filter: url('#black-and-white-filter-0');"/>
</svg>
